<?xml version="1.0" encoding="utf-8"?>
<!-- Generator: Adobe Illustrator 18.1.1, SVG Export Plug-In . SVG Version: 6.00 Build 0)  -->
<!DOCTYPE svg PUBLIC "-//W3C//DTD SVG 1.1//EN" "http://www.w3.org/Graphics/SVG/1.1/DTD/svg11.dtd">
<svg version="1.1" id="Layer_1" xmlns="http://www.w3.org/2000/svg" xmlns:xlink="http://www.w3.org/1999/xlink" x="0px" y="0px"
	 viewBox="0 0 600 600" enable-background="new 0 0 600 600" xml:space="preserve">
<g>
	<path fill="#FFFFFF" d="M60.366,180.241h-35.51C8.867,216.927,0,257.426,0,300.002l0,0c0,165.685,134.313,299.997,300.002,299.997
		l0,0c98.698,0,186.266-47.665,240.939-121.232h-67.585c-44.836,43.484-105.972,70.258-173.354,70.258
		c-137.526,0-249.026-111.505-249.026-249.023c0-30.674,5.543-60.045,15.69-87.179l-6.299-0.01V180.241 M228.209,180.241
		c22.858,0.975,41.016,5.341,54.493,13.082c15.409,8.865,27.68,21.913,36.82,39.154c9.14,17.242,13.711,38.075,13.711,62.497
		c0,23.891-4.357,45.231-13.063,64.037c-8.701,18.806-21.382,33.669-38.038,44.585c-16.654,10.916-39.469,16.374-68.455,16.374
		H114.73V273.03h49.963v112.897h37.305c19.466,0,34.366-3.026,44.693-9.084c10.329-6.048,18.494-16.291,24.491-30.721
		c6.006-14.425,9.003-30.502,9.003-48.229c0-16.965-2.919-31.992-8.757-45.069c-5.841-13.075-13.925-22.992-24.252-29.747
		c-10.329-6.754-27.768-10.134-52.312-10.134h-30.17l-98.028-0.12l-6.299-0.01v-32.573H228.209"/>
	<path fill="#FFFFFF" d="M300.002,0.001L300.002,0.001c-98.881,0-186.6,47.851-241.251,121.647h67.466
		c44.873-43.725,106.188-70.67,173.785-70.67c137.521,0,249.021,111.503,249.021,249.025c0,30.276-5.404,59.287-15.299,86.124
		h26.581v34.044h-42.149v0.005h56.803C591.065,383.378,600,342.735,600,300.002c0-22.131-2.395-43.695-6.94-64.457
		C563.565,100.836,443.556,0.001,300.002,0.001 M422.847,180.241v205.886h110.876h26.581v34.044h-42.149h-145.27v-239.93H422.847"/>
</g>
</svg>
